# xmcd
#
# Track frame offsets: 
#        150
#        8519
#        21158
#        34190
#        45143
#        54588
#        67713
#        78160
#        94692
#        106959
#        117352
#        132245
#
# Disc length: 1895 seconds
#
# Revision: 0
# Processed by: cddbd v1.5.2PL0 Copyright (c) Steve Scherf et al.
# Submitted via: ExactAudioCopy v0.99pb5
#
DISCID=8307650c
DTITLE=Various Artist - Sounds Ever Green - Compilation Country 1
DYEAR=2007
DGENRE=Country
TTITLE0=Johnny Cash - Country Boy
TTITLE1=Freddy Fender - Silver Wings
TTITLE2=David Huston - My Elusive Dream
TTITLE3=Frankie Laine - I Believe In You
TTITLE4=Gene Autry - You Are My Sunshine
TTITLE5=Merle Haggard - The Legend Of Bonny and Clyde
TTITLE6=Billie Jo Spears - I Coulda Been Man
TTITLE7=Faron Young - If You Ain't Lovin'
TTITLE8=Hank Williams - (LN) I Heard You Crying In Your Sleep
TTITLE9=Willie Nelson - Pride Wins Again
TTITLE10=Patsy Cline - Lovesick Blues
TTITLE11=Kenny Rogers - For The Good Times
EXTD=
EXTT0=
EXTT1=
EXTT2=
EXTT3=
EXTT4=
EXTT5=
EXTT6=
EXTT7=
EXTT8=
EXTT9=
EXTT10=
EXTT11=
PLAYORDER=
